<svg width="110" height="46" viewBox="0 0 110 46" fill="none" xmlns="http://www.w3.org/2000/svg">
<g clip-path="url(#clip0_93_967)">
<mask id="mask0_93_967" style="mask-type:luminance" maskUnits="userSpaceOnUse" x="0" y="0" width="110" height="46">
<path d="M109.5 0.282959H0.5V45.283H109.5V0.282959Z" fill="white"/>
</mask>
<g mask="url(#mask0_93_967)">
<path d="M71.8318 20.5464V12.7512H74.4955C74.4955 12.7512 74.4955 16.1154 74.4955 16.3813C74.4955 16.646 74.437 16.9479 74.437 16.9479H74.5527L77.452 12.7518H80L79.9994 20.5464H77.3369V16.8841C77.3369 16.622 77.3941 16.3731 77.3941 16.3731H77.2784L74.3805 20.5464H71.8318Z" fill="#663A2A"/>
<path d="M66.3085 12.5437C68.8417 12.5437 70.7303 14.3034 70.7303 16.6603C70.7303 18.9948 68.8417 20.7543 66.3085 20.7543C63.8015 20.7543 61.9117 18.9948 61.9117 16.6603C61.9117 14.3032 63.8015 12.5437 66.3085 12.5437ZM66.3091 18.3261C67.277 18.3261 67.9212 17.5875 67.9212 16.6603C67.9212 15.7111 67.2768 14.9715 66.3091 14.9715C65.3658 14.9715 64.6968 15.711 64.6968 16.6603C64.6966 17.5873 65.3658 18.3261 66.3091 18.3261Z" fill="#663A2A"/>
<path d="M13.533 21.8962C16.0209 21.8962 17.7805 23.654 17.7805 26.024C17.7805 28.3625 16.0211 30.1059 13.533 30.1059C11.074 30.1059 9.29858 28.3625 9.29858 26.024C9.29858 23.654 11.074 21.8962 13.533 21.8962ZM13.533 28.6754C15.1346 28.6754 16.2267 27.5287 16.2267 26.024C16.2267 24.4885 15.1348 23.3272 13.533 23.3272C11.9609 23.3272 10.8679 24.4885 10.8679 26.024C10.8677 27.5287 11.9607 28.6754 13.533 28.6754Z" fill="#663A2A"/>
<path d="M53.0873 26.5101C53.1027 26.3507 53.1121 26.1895 53.1121 26.024C53.1121 23.654 51.8648 21.8962 49.2515 21.8962C47.0177 21.8962 45.403 23.654 45.403 26.024C45.403 26.1895 45.4134 26.3507 45.4285 26.5101H45.426C45.6066 28.5435 46.9317 30.109 49.706 30.109C51.0457 30.109 52.185 29.7056 53.0066 29.0491L52.3817 27.9286C51.7737 28.377 50.8468 28.7949 49.752 28.7949C48.0185 28.7949 47.1812 27.8687 47.0299 26.5101H47.0357H53.0873ZM49.3294 23.1909C50.7578 23.1909 51.5046 24.1038 51.6303 25.2998H47.053C47.2801 24.0641 48.151 23.1909 49.3294 23.1909Z" fill="#663A2A"/>
<path d="M60.0333 22.1052V25.2994H55.7843V22.1052H54.2048V29.9003H55.7843V26.5071H60.0333V29.9003H61.6127V22.1052H60.0333Z" fill="#663A2A"/>
<path d="M69.937 22.1052H62.7052V23.488H65.5305V29.9003H67.1106V23.488H69.937V22.1052Z" fill="#663A2A"/>
<path d="M79.9994 22.105H78.4195V29.9H79.9994V22.105Z" fill="#663A2A"/>
<path d="M22.3376 25.799V25.7308C22.3376 25.7308 22.4831 25.6837 22.616 25.5351C22.7478 25.3889 25.6424 22.105 25.6424 22.105H23.8691L21.0819 25.2991H20.4518V22.105H18.8723V29.9H20.4518V26.5068H21.1684L24.1762 29.9L26.1435 29.8988C26.1435 29.8988 22.7715 26.1635 22.6265 26.0021C22.4879 25.8473 22.3376 25.799 22.3376 25.799Z" fill="#663A2A"/>
<path d="M73.8301 24.488C73.0906 24.488 72.6089 24.5805 72.6089 24.5805V22.1052H71.0291V29.902C71.0291 29.902 72.327 30.0265 73.6699 30.0265C76.1534 30.0265 76.9696 28.5404 76.9696 27.1735C76.9696 25.7862 76.2395 24.488 73.8301 24.488ZM73.5468 28.7273C73.0563 28.7273 72.6089 28.69 72.6089 28.69V25.8787C72.6089 25.8787 72.9547 25.7864 73.565 25.7864C74.8885 25.7864 75.4698 26.2888 75.4698 27.2244C75.4698 28.1425 74.9457 28.7273 73.5468 28.7273Z" fill="#663A2A"/>
<path d="M6.69181 22.1053L6.64983 23.0882H6.54848C6.04516 22.3546 5.03831 21.8962 4.24935 21.8962C1.93501 21.8962 0.557569 23.654 0.5016 26.024C0.44743 28.3625 1.84106 30.1059 4.1554 30.1059C5.21661 30.1059 5.87845 29.8106 6.5251 29.0564H6.62664V29.7543C6.62664 31.2627 5.56202 31.8607 4.36008 31.8607C3.25469 31.8607 2.39396 31.451 1.86685 31.1398L1.35093 32.4278C1.85206 32.681 2.79374 33.2335 4.35989 33.2335C6.57966 33.2335 8.20656 31.9343 8.20656 29.441V22.1051L6.69181 22.1053ZM4.43684 28.6754C2.84292 28.6754 1.99898 27.5287 2.03396 26.024C2.07014 24.4885 2.96744 23.3272 4.56037 23.3272C5.43969 23.3272 6.62644 24.1169 6.62644 25.5456V27.6966C6.13251 28.2989 5.36573 28.6754 4.43684 28.6754Z" fill="#663A2A"/>
<path d="M32.4085 22.1051V27.7551C31.9451 28.3234 31.2337 28.6754 30.3358 28.6754C28.8844 28.6754 28.2202 27.5288 28.2564 26.0241V22.103H26.7232V26.0241C26.6692 28.3629 27.6225 30.1059 29.936 30.1059C30.9958 30.1059 31.7148 29.7973 32.3069 29.0565H32.4085V29.7546C32.4085 31.2628 31.343 31.8608 30.1419 31.8608C29.0359 31.8608 28.1754 31.4512 27.6479 31.1399L27.1318 32.4283C27.6339 32.6811 28.5756 33.2339 30.1419 33.2339C32.3615 33.2339 33.9878 31.9345 33.9878 29.4412V22.1053L32.4085 22.1051Z" fill="#663A2A"/>
<path d="M42.814 22.1052C42.814 22.1052 40.2016 25.713 40.1257 25.8196C40.0493 25.9268 40.0241 26.0294 40.0241 26.0294H39.9664C39.9664 26.0294 39.9346 25.9272 39.8506 25.8196C39.7673 25.7126 36.9612 22.1052 36.9612 22.1052H35.4706V29.9003H37.0507V24.929C37.0507 24.5825 36.9774 24.3867 36.9774 24.3867H37.0507L39.9583 28.2232H40.0251L42.7222 24.3867H42.7958C42.7958 24.3867 42.7222 24.5915 42.7222 24.9246V29.9003H44.3018V22.1052H42.814Z" fill="#663A2A"/>
<path d="M58.7184 12.7512C58.7184 12.7512 56.4946 15.5908 56.4041 15.699C56.2954 15.8315 56.2854 15.9023 56.2854 15.9023H56.1704C56.1704 15.9023 56.1487 15.8264 56.0437 15.6984C55.8872 15.5081 53.5825 12.7512 53.5825 12.7512H51.482V20.5464H54.0492V17.2734C54.0492 16.9214 53.9916 16.7065 53.9916 16.7065H54.1069L56.1704 19.0339H56.2816L58.1943 16.7065H58.3102C58.3102 16.7065 58.2517 16.9172 58.2517 17.2734V20.5464H60.8205V12.7512H58.7184Z" fill="#663A2A"/>
<path d="M93.6277 19.1036V11.1943H87.2795V19.0996C87.2795 21.8851 88.7927 24.4583 91.2479 25.8497L98.3901 29.8998V22.7031L94.4223 20.4538C93.9305 20.1748 93.6277 19.6605 93.6277 19.1036Z" fill="#C59368"/>
<path d="M98.3897 26.7817L105.531 22.7328C107.986 21.34 109.5 18.767 109.5 15.9813V0.282959H98.3897V6.51811H103.151L103.151 15.9862C103.151 16.5432 102.849 17.0577 102.357 17.3355L98.3897 19.5856V26.7817Z" fill="#E84B37"/>
<path d="M98.3901 0.282959L87.2795 11.1946H98.3901V0.282959Z" fill="#663A2A"/>
<path d="M20.9672 42.0307L21.008 41.5296H20.9812L20.7451 42.0834L19.6095 43.931H19.2941V40.6318H19.7784V42.592L19.7376 43.0724H19.7644L19.9859 42.5323L21.1355 40.6318H21.4509V43.931H20.9672V42.0307Z" fill="#E84B37"/>
<path d="M26.1667 41.9708L26.2147 41.3447H26.1873L25.985 41.9056L25.3606 43.1716H25.1857L24.5354 41.9056L24.3531 41.3447H24.3197L24.3735 41.9643V43.9309H23.9366V40.6313H24.4207L25.1524 42.0636L25.3006 42.492H25.3138L25.4747 42.0495L26.1539 40.6313H26.6503V43.9309H26.1667V41.9708Z" fill="#E84B37"/>
<path d="M28.4101 42.7628L28.5516 43.4029H28.5848L28.6861 42.7628L29.1961 40.632H29.6872L28.8866 43.594C28.8243 43.8319 28.7621 44.0533 28.6994 44.261C28.636 44.4677 28.5682 44.6464 28.495 44.7981C28.4209 44.9495 28.3377 45.0686 28.2462 45.1542C28.1536 45.2402 28.0451 45.2828 27.9204 45.2828C27.7946 45.2828 27.6849 45.2631 27.5907 45.2233L27.6717 44.7745C27.7343 44.7965 27.7964 44.8006 27.86 44.7877C27.9224 44.7746 27.9811 44.7372 28.0369 44.676C28.0939 44.6145 28.1452 44.5223 28.1919 44.4016C28.2386 44.281 28.2804 44.124 28.3159 43.9308L27.2275 40.6318H27.7783L28.4101 42.7628Z" fill="#E84B37"/>
<path d="M31.884 42.4594H30.721V43.9313H30.2373V40.6313H30.721V42.0308H31.884V40.6313H32.3677V43.9313H31.884V42.4594Z" fill="#E84B37"/>
<path d="M34.9605 42.0307L35 41.5296H34.9733L34.7382 42.0834L33.6038 43.931H33.287V40.6318H33.7708V42.592L33.7311 43.0724H33.7577L33.9792 42.5323L35.1282 40.6318H35.4442V43.931H34.9605V42.0307Z" fill="#E84B37"/>
<path d="M38.8364 44.7685H38.5014L38.4202 43.931H36.3718V40.6321H36.8551V43.5016H37.9635V40.6321H38.4472V43.5016H38.8364V44.7685Z" fill="#E84B37"/>
<path d="M41.1473 42.0307L41.1873 41.5296H41.1605L40.9246 42.0834L39.7906 43.931H39.475V40.6318H39.9585V42.592L39.9178 43.0724H39.9445L40.1667 42.5323L41.3152 40.6318H41.6314V43.931H41.1473V42.0307Z" fill="#E84B37"/>
<path d="M44.1701 41.0604H43.0415V43.931H42.5585V40.6321H44.6542V43.931H44.1701V41.0604Z" fill="#E84B37"/>
<path d="M45.5475 40.8303C45.6774 40.751 45.8351 40.6895 46.0212 40.645C46.2071 40.6012 46.4022 40.5796 46.6081 40.5796C46.7976 40.5796 46.9477 40.6069 47.0627 40.6622C47.1768 40.7166 47.2665 40.7904 47.3305 40.8861C47.3958 40.9806 47.439 41.0888 47.4588 41.2087C47.4788 41.3301 47.4892 41.4571 47.4892 41.5886C47.4892 41.8524 47.4832 42.1102 47.4718 42.3613C47.46 42.611 47.4543 42.8489 47.4543 43.0729C47.4543 43.2407 47.46 43.3961 47.4718 43.5375C47.4834 43.6819 47.5056 43.8167 47.5366 43.9447H47.1572L47.0403 43.5548H47.0141C46.9469 43.6695 46.8492 43.768 46.7202 43.8519C46.5913 43.9357 46.4186 43.9767 46.1999 43.9767C45.9605 43.9767 45.7633 43.8952 45.6097 43.7294C45.4569 43.5645 45.3795 43.3374 45.3795 43.0472C45.3795 42.8579 45.4127 42.6996 45.4769 42.5713C45.5409 42.4447 45.6324 42.3405 45.7495 42.2615C45.8673 42.1824 46.0074 42.1259 46.1703 42.0935C46.3324 42.0606 46.5129 42.0443 46.7122 42.0443H46.8455C46.8905 42.0443 46.9371 42.0458 46.9863 42.05C46.9991 41.9139 47.0061 41.7926 47.0061 41.688C47.0061 41.437 46.9677 41.2617 46.8931 41.1597C46.8179 41.0586 46.6799 41.0083 46.4806 41.0083C46.356 41.0083 46.2203 41.0268 46.0744 41.0647C45.9274 41.102 45.8059 41.1489 45.708 41.2062L45.5475 40.8303ZM46.9919 42.4264C46.9469 42.4223 46.9025 42.4188 46.8595 42.4164C46.8146 42.4145 46.7704 42.4133 46.7256 42.4133C46.6201 42.4133 46.5163 42.4221 46.4132 42.4394C46.3116 42.4575 46.2217 42.4877 46.1423 42.5325C46.0626 42.5763 45.9992 42.635 45.9523 42.7097C45.9065 42.7849 45.8841 42.8792 45.8841 42.994C45.8841 43.1699 45.9264 43.3057 46.0124 43.4029C46.0987 43.4995 46.2107 43.5478 46.3482 43.5478C46.5335 43.5478 46.6779 43.5036 46.7794 43.4162C46.8819 43.3279 46.9517 43.2313 46.9921 43.1257L46.9919 42.4264Z" fill="#E84B37"/>
<path d="M49.8603 41.0604H49.1281C49.1146 41.435 49.096 41.7966 49.0742 42.1458C49.0518 42.4951 49.0132 42.8047 48.9568 43.0726C48.9007 43.3409 48.8209 43.5561 48.7184 43.7159C48.6148 43.8773 48.4787 43.9568 48.3086 43.9568C48.2323 43.9568 48.1673 43.9527 48.1135 43.9444C48.0599 43.9352 48.0106 43.9199 47.9656 43.8991L48.0398 43.4886C48.1341 43.5147 48.2187 43.5092 48.292 43.4717C48.3653 43.4342 48.4297 43.32 48.4829 43.1278C48.5364 42.9367 48.58 42.6438 48.6148 42.2485C48.6474 41.8543 48.6704 41.3152 48.6846 40.6321H50.3445V43.931H49.8603V41.0604Z" fill="#E84B37"/>
<path d="M51.7545 41.892C51.8438 41.8747 51.9292 41.8624 52.0098 41.8557C52.0907 41.8494 52.1665 41.8459 52.2388 41.8459C52.4269 41.8459 52.5858 41.8708 52.7156 41.9211C52.8453 41.9725 52.9501 42.0406 53.0314 42.1295C53.1115 42.2179 53.1699 42.3212 53.2063 42.4431C53.2423 42.5638 53.2598 42.6927 53.2598 42.8288C53.2598 43.2288 53.1617 43.5194 52.9641 43.6992C52.7669 43.8806 52.4577 43.97 52.0374 43.97C51.7729 43.97 51.5176 43.9574 51.2717 43.931V40.6321H51.7547L51.7545 41.892ZM51.7545 43.502C51.889 43.5276 52.0129 43.541 52.1247 43.541C52.5453 43.541 52.7557 43.3229 52.7557 42.8883C52.7557 42.6906 52.7062 42.5349 52.6084 42.423C52.5095 42.3107 52.3524 42.255 52.1375 42.255C52.0799 42.255 52.0166 42.2585 51.9493 42.2652C51.8824 42.2709 51.8183 42.2838 51.7547 42.3009L51.7545 43.502Z" fill="#E84B37"/>
<path d="M55.5838 42.4594H54.4214V43.9313H53.9379V40.6313H54.4214V42.0308H55.5838V40.6313H56.0681V43.9313H55.5838V42.4594Z" fill="#E84B37"/>
<path d="M57.4711 41.892C57.5609 41.8747 57.6461 41.8623 57.7264 41.8556C57.8078 41.8494 57.8835 41.8458 57.9555 41.8458C58.139 41.8458 58.2929 41.8707 58.4184 41.921C58.5445 41.9724 58.6435 42.0405 58.7181 42.1295C58.7914 42.2178 58.8438 42.3211 58.876 42.443C58.9068 42.5637 58.9223 42.6927 58.9223 42.8288C58.9223 43.2288 58.8322 43.5194 58.6503 43.6992C58.4684 43.8806 58.1679 43.9699 57.7464 43.9699C57.487 43.9699 57.2341 43.9573 56.9883 43.931V40.632H57.4711V41.892ZM57.4711 43.5019C57.6067 43.5276 57.7294 43.541 57.8417 43.541C58.0565 43.541 58.206 43.4846 58.2919 43.3727C58.376 43.2608 58.4186 43.099 58.4186 42.8882C58.4186 42.6899 58.3781 42.5349 58.2953 42.423C58.2119 42.3107 58.0658 42.2549 57.8555 42.2549C57.7966 42.2549 57.7338 42.2585 57.6667 42.2651C57.5997 42.2708 57.5343 42.2838 57.4713 42.3009L57.4711 43.5019ZM59.3257 40.6318H59.8099V43.9308H59.3257V40.6318Z" fill="#E84B37"/>
<path d="M62.7445 43.7067C62.6382 43.8027 62.5006 43.8777 62.3347 43.9311C62.1686 43.9837 61.9939 44.0104 61.8116 44.0104C61.6011 44.0104 61.4182 43.9686 61.2639 43.8877C61.1096 43.8062 60.9812 43.6894 60.8811 43.5373C60.781 43.3861 60.7062 43.2053 60.6584 42.9939C60.6118 42.7827 60.589 42.5453 60.589 42.2815C60.589 41.7185 60.6938 41.2896 60.9041 40.9949C61.1154 40.7006 61.4124 40.5522 61.7982 40.5522C61.9227 40.5522 62.0477 40.5681 62.171 40.5986C62.2945 40.6295 62.4053 40.6912 62.5036 40.7829C62.6015 40.8761 62.6807 41.0059 62.7421 41.1728C62.8027 41.3398 62.8322 41.5571 62.8322 41.8253C62.8322 41.9011 62.8286 41.9803 62.8224 42.0662C62.8154 42.1521 62.808 42.2417 62.799 42.3331H61.0924C61.0924 42.5228 61.108 42.6949 61.1389 42.8482C61.171 43.002 61.2197 43.1331 61.2871 43.2405C61.3538 43.3487 61.4402 43.4318 61.5463 43.4903C61.6509 43.5504 61.7824 43.5809 61.9383 43.5809C62.06 43.5809 62.1795 43.5579 62.2979 43.5141C62.4167 43.4704 62.508 43.418 62.5704 43.3557L62.7445 43.7067ZM62.3691 41.9382C62.3781 41.609 62.3307 41.3663 62.2279 41.213C62.1244 41.0583 61.9837 40.9813 61.8046 40.9813C61.5989 40.9813 61.4356 41.0583 61.3141 41.213C61.1931 41.3663 61.1222 41.6092 61.0992 41.9382H62.3691Z" fill="#E84B37"/>
<path d="M66.0031 42.7628L66.1448 43.4029H66.1779L66.2781 42.7628L66.789 40.632H67.2795L66.4798 43.594C66.4174 43.8319 66.3536 44.0533 66.2915 44.261C66.2291 44.4677 66.1614 44.6464 66.0876 44.7981C66.013 44.9495 65.9303 45.0686 65.8384 45.1542C65.746 45.2402 65.6379 45.2828 65.5125 45.2828C65.3872 45.2828 65.2774 45.2631 65.1833 45.2233L65.2648 44.7745C65.3272 44.7965 65.3894 44.8006 65.4524 44.7877C65.5153 44.7746 65.5735 44.7372 65.6303 44.676C65.6856 44.6145 65.738 44.5223 65.7845 44.4016C65.8312 44.281 65.8731 44.124 65.9091 43.9308L64.8209 40.6318H65.372L66.0031 42.7628Z" fill="#E84B37"/>
<path d="M69.6511 43.7651C69.5387 43.8496 69.4116 43.911 69.2676 43.9501C69.1243 43.9897 68.9756 44.0106 68.8181 44.0106C68.6035 44.0106 68.4218 43.9689 68.2738 43.8875C68.1258 43.8067 68.0067 43.6893 67.9138 43.5376C67.8223 43.3865 67.7549 43.2041 67.712 42.9897C67.6704 42.7769 67.649 42.5412 67.649 42.2816C67.649 41.7184 67.7503 41.2893 67.9542 40.9944C68.1581 40.7006 68.4501 40.553 68.8309 40.553C69.0052 40.553 69.1559 40.5681 69.2817 40.5991C69.4062 40.6293 69.5138 40.6692 69.6047 40.7172L69.4701 41.1328C69.2904 41.032 69.0953 40.9815 68.8854 40.9815C68.6425 40.9815 68.4602 41.0857 68.3377 41.2948C68.2139 41.5041 68.154 41.8329 68.154 42.2816C68.154 42.4618 68.1661 42.6313 68.193 42.7895C68.22 42.9479 68.2644 43.085 68.3269 43.2018C68.3902 43.3176 68.4703 43.4112 68.5698 43.4783C68.6674 43.5471 68.7905 43.581 68.9386 43.581C69.0543 43.581 69.1639 43.561 69.2649 43.5219C69.3651 43.4827 69.4472 43.4364 69.5105 43.3831L69.6511 43.7651Z" fill="#E84B37"/>
<path d="M71.6393 41.0604H70.9073C70.8938 41.435 70.8763 41.7966 70.8541 42.1458C70.8306 42.4951 70.7915 42.8047 70.7357 43.0726C70.6805 43.3409 70.6004 43.5561 70.4968 43.7159C70.3939 43.8773 70.2586 43.9568 70.0871 43.9568C70.011 43.9568 69.9464 43.9527 69.8926 43.9444C69.8388 43.9352 69.7897 43.9199 69.7453 43.8991L69.8193 43.4886C69.9121 43.5147 69.9969 43.5092 70.0709 43.4717C70.1443 43.4342 70.2082 43.32 70.262 43.1278C70.3158 42.9367 70.3596 42.6438 70.3932 42.2485C70.4269 41.8543 70.4497 41.3152 70.4639 40.6321H72.1231V43.931H71.6393V41.0604Z" fill="#E84B37"/>
<path d="M73.8833 42.7628L74.0232 43.4029H74.0575L74.1585 42.7628L74.6691 40.632H75.1596L74.3603 43.594C74.2971 43.8319 74.2345 44.0533 74.1719 44.261C74.1093 44.4677 74.0414 44.6464 73.9674 44.7981C73.8934 44.9495 73.8106 45.0686 73.7184 45.1542C73.6262 45.2402 73.5179 45.2828 73.3928 45.2828C73.2669 45.2828 73.1579 45.2631 73.0631 45.2233L73.1438 44.7745C73.2071 44.7965 73.2696 44.8006 73.3329 44.7877C73.3955 44.7746 73.4547 44.7372 73.5105 44.676C73.5657 44.6145 73.6182 44.5223 73.6646 44.4016C73.7117 44.281 73.7534 44.124 73.7891 43.9308L72.7011 40.6318H73.2508L73.8833 42.7628Z" fill="#E84B37"/>
<path d="M77.3087 41.0604H76.1931V43.931H75.7107V40.6321H77.3087V41.0604Z" fill="#E84B37"/>
<path d="M79.5062 42.0307L79.5459 41.5296H79.519L79.2848 42.0834L78.1484 43.931H77.8335V40.6318H78.3166V42.592L78.2769 43.0724H78.3031L78.5252 42.5323L79.6744 40.6318H79.9899V43.931H79.5062V42.0307Z" fill="#E84B37"/>
<path d="M40.2068 34.8252H39.0914V37.6952H38.6081V34.396H40.2068V34.8252Z" fill="#E84B37"/>
<path d="M40.5029 36.0456C40.5029 35.4514 40.6066 35.015 40.8153 34.7362C41.0226 34.4571 41.3198 34.3171 41.705 34.3171C42.117 34.3171 42.4204 34.4598 42.6157 34.746C42.8104 35.0326 42.9069 35.4648 42.9069 36.0456C42.9069 36.6438 42.8022 37.0809 42.5919 37.3583C42.3814 37.6353 42.0856 37.7745 41.705 37.7745C41.2929 37.7745 40.9902 37.6318 40.7953 37.3452C40.5996 37.0594 40.5029 36.6257 40.5029 36.0456ZM41.0064 36.0456C41.0064 36.2396 41.019 36.4153 41.0436 36.5725C41.0682 36.7319 41.1084 36.8686 41.1647 36.9828C41.2193 37.097 41.2926 37.1858 41.382 37.2495C41.4714 37.3137 41.5795 37.3452 41.7048 37.3452C41.9373 37.3452 42.1122 37.2427 42.2285 37.0382C42.345 36.8336 42.4034 36.5026 42.4034 36.0456C42.4034 35.8562 42.3907 35.682 42.3658 35.5211C42.3415 35.3601 42.3013 35.2235 42.2459 35.1086C42.1887 34.9944 42.1166 34.906 42.0271 34.8409C41.9371 34.7777 41.8301 34.746 41.7048 34.746C41.4763 34.746 41.3026 34.8491 41.1837 35.0553C41.0656 35.2629 41.0064 35.5928 41.0064 36.0456Z" fill="#E84B37"/>
<path d="M45.5412 37.5301C45.4287 37.6131 45.3016 37.6758 45.1571 37.7144C45.0143 37.7541 44.8646 37.7743 44.7071 37.7743C44.4928 37.7743 44.3111 37.7327 44.163 37.6524C44.0149 37.5702 43.8961 37.4543 43.8042 37.302C43.7122 37.1502 43.6457 36.9684 43.6025 36.7545C43.5605 36.5415 43.5395 36.3053 43.5395 36.0456C43.5395 35.4828 43.6409 35.0537 43.845 34.7596C44.0485 34.4647 44.3405 34.3171 44.7207 34.3171C44.896 34.3171 45.0459 34.333 45.1709 34.3627C45.297 34.3939 45.4041 34.4335 45.4936 34.4819L45.36 34.8974C45.1804 34.7961 44.9857 34.7458 44.7746 34.7458C44.5334 34.7458 44.3505 34.8501 44.2276 35.0592C44.1036 35.2682 44.0429 35.5969 44.0429 36.0454C44.0429 36.226 44.0557 36.3947 44.0824 36.5534C44.1094 36.7119 44.1542 36.8491 44.2174 36.9661C44.2807 37.0823 44.3601 37.1748 44.459 37.2425C44.558 37.3108 44.6803 37.3452 44.8282 37.3452C44.9447 37.3452 45.0545 37.3252 45.1547 37.2853C45.2548 37.2462 45.3371 37.1999 45.3995 37.1479L45.5412 37.5301Z" fill="#E84B37"/>
<path d="M46.9645 36.5272L47.1062 37.1671H47.1392L47.2405 36.5272L47.7511 34.3964H48.2412L47.4423 37.358C47.3793 37.5961 47.3165 37.8181 47.2535 38.0248C47.1905 38.2315 47.123 38.4104 47.0488 38.5627C46.9749 38.7143 46.8923 38.8328 46.8002 38.9186C46.708 39.0042 46.6003 39.047 46.4748 39.047C46.3494 39.047 46.2397 39.0269 46.1453 38.9875L46.2265 38.5382C46.2889 38.5613 46.3518 38.5654 46.4144 38.5519C46.4769 38.5382 46.5361 38.502 46.5917 38.4406C46.6483 38.3785 46.6994 38.2871 46.7468 38.1656C46.7934 38.0456 46.8345 37.888 46.8713 37.695L45.783 34.3962H46.3336L46.9645 36.5272Z" fill="#E84B37"/>
<path d="M51.1503 38.534H50.8147L50.7336 37.6955H48.7445L48.6575 38.534H48.3289V37.267H48.6443C48.6711 37.2183 48.7077 37.1294 48.7555 36.9986C48.8023 36.8691 48.8476 36.6893 48.893 36.4584C48.938 36.2275 48.977 35.9431 49.0106 35.6041C49.0439 35.2647 49.0631 34.8622 49.0679 34.397H50.7534V37.267H51.1501L51.1503 38.534ZM50.2705 37.2668V34.8251H49.5113C49.5013 35.0145 49.4897 35.2213 49.4743 35.4457C49.4583 35.6692 49.4347 35.8928 49.4035 36.1146C49.3722 36.3369 49.3341 36.5493 49.2894 36.7521C49.2443 36.9541 49.193 37.1247 49.1351 37.2666L50.2705 37.2668Z" fill="#E84B37"/>
<path d="M51.7545 34.5944C51.8844 34.5155 52.0429 34.4537 52.2282 34.4093C52.4147 34.3651 52.6098 34.3438 52.8155 34.3438C53.0044 34.3438 53.1551 34.3712 53.2701 34.4266C53.3838 34.4814 53.4729 34.5558 53.5379 34.6502C53.6026 34.7458 53.6456 34.8528 53.6648 34.9737C53.6858 35.0941 53.6956 35.2214 53.6956 35.3534C53.6956 35.6176 53.6907 35.874 53.6782 36.1253C53.667 36.3752 53.6614 36.6133 53.6614 36.8381C53.6614 37.0049 53.667 37.1598 53.6782 37.3023C53.6907 37.4458 53.7118 37.5807 53.743 37.7087H53.364L53.2464 37.3192H53.2203C53.1533 37.4335 53.0554 37.5328 52.9264 37.6164C52.7977 37.6998 52.6246 37.7418 52.4061 37.7418C52.1661 37.7418 51.9702 37.659 51.8165 37.4941C51.6626 37.3286 51.5862 37.1015 51.5862 36.8111C51.5862 36.6217 51.6182 36.4637 51.6824 36.3355C51.7477 36.2091 51.8379 36.1058 51.9564 36.0262C52.074 35.9468 52.214 35.8913 52.3757 35.8575C52.5381 35.8245 52.7184 35.8082 52.9186 35.8082H53.0518C53.0967 35.8082 53.1437 35.8106 53.1915 35.8145C53.2057 35.6787 53.2125 35.557 53.2125 35.4519C53.2125 35.2011 53.1739 35.026 53.0988 34.9239C53.0238 34.8223 52.8861 34.7733 52.6866 34.7733C52.5622 34.7733 52.4263 34.791 52.2796 34.828C52.1333 34.8659 52.0116 34.9139 51.9142 34.9708L51.7545 34.5944ZM53.1989 36.1906C53.1547 36.1865 53.1105 36.1834 53.0664 36.1806C53.0228 36.1786 52.9778 36.1781 52.9332 36.1781C52.8275 36.1781 52.724 36.1863 52.6208 36.2038C52.5195 36.2216 52.4287 36.2519 52.3493 36.2966C52.2702 36.3406 52.207 36.3995 52.1603 36.4747C52.1143 36.5495 52.0909 36.6433 52.0909 36.7583C52.0909 36.934 52.1339 37.0699 52.2202 37.167C52.3058 37.2639 52.4181 37.3126 52.5552 37.3126C52.7413 37.3126 52.8843 37.2678 52.987 37.1804C53.0884 37.0923 53.1593 36.9961 53.1989 36.8899V36.1906Z" fill="#E84B37"/>
<path d="M54.6095 34.3964H54.953L55.0267 34.7523H55.0531C55.2186 34.4628 55.4782 34.3171 55.832 34.3171C56.1857 34.3171 56.4507 34.4471 56.6284 34.7066C56.8055 34.9653 56.8935 35.3901 56.8935 35.9795C56.8935 36.2562 56.8639 36.506 56.8067 36.728C56.748 36.9498 56.6644 37.1396 56.5573 37.2957C56.4501 37.4522 56.3196 37.5702 56.1645 37.6518C56.0107 37.7327 55.8382 37.7737 55.6508 37.7737C55.5214 37.7737 55.4175 37.7661 55.3417 37.751C55.2662 37.7358 55.1828 37.7037 55.0937 37.6547V39.0146H54.6093L54.6095 34.3964ZM55.0939 37.1736C55.1558 37.2266 55.2272 37.2682 55.3055 37.2989C55.3835 37.3301 55.4879 37.3452 55.6174 37.3452C55.8548 37.3452 56.0428 37.2266 56.1816 36.9895C56.3202 36.7519 56.3897 36.4129 56.3897 35.9734C56.3897 35.789 56.3776 35.6214 56.3529 35.4718C56.328 35.322 56.2896 35.1934 56.2361 35.0852C56.1816 34.9783 56.1137 34.8935 56.0309 34.8346C55.948 34.7751 55.8456 34.7456 55.7249 34.7456C55.3981 34.7456 55.1872 34.9418 55.0941 35.3322L55.0939 37.1736Z" fill="#E84B37"/>
<path d="M59.521 37.5301C59.4085 37.6131 59.281 37.6758 59.137 37.7144C58.9943 37.7541 58.845 37.7743 58.6876 37.7743C58.4722 37.7743 58.2911 37.7327 58.143 37.6524C57.9956 37.5702 57.8753 37.4543 57.7834 37.302C57.6918 37.1502 57.6251 36.9684 57.5817 36.7545C57.5399 36.5415 57.5189 36.3053 57.5189 36.0456C57.5189 35.4828 57.6201 35.0537 57.8242 34.7596C58.0283 34.4647 58.3201 34.3171 58.7005 34.3171C58.8754 34.3171 59.0257 34.333 59.1504 34.3627C59.2764 34.3939 59.3841 34.4335 59.4731 34.4819L59.3389 34.8974C59.1596 34.7961 58.9647 34.7458 58.7543 34.7458C58.513 34.7458 58.3299 34.8501 58.2076 35.0592C58.0846 35.2682 58.0225 35.5969 58.0225 36.0454C58.0225 36.226 58.0355 36.3947 58.0628 36.5534C58.0894 36.7119 58.134 36.8491 58.1969 36.9661C58.2599 37.0823 58.3399 37.1748 58.4388 37.2425C58.5373 37.3108 58.6601 37.3452 58.8084 37.3452C58.9241 37.3452 59.0341 37.3252 59.1346 37.2853C59.2354 37.2462 59.3172 37.1999 59.3793 37.1479L59.521 37.5301Z" fill="#E84B37"/>
<path d="M61.8711 34.8252H61.0454V37.6952H60.5614V34.8252H59.7347V34.396H61.8711V34.8252Z" fill="#E84B37"/>
<path d="M62.4092 34.4033C62.534 34.3941 62.6707 34.3829 62.8188 34.3699C62.9668 34.3568 63.1428 34.3501 63.3497 34.3501C63.7125 34.3501 63.9718 34.4169 64.1285 34.5509C64.286 34.6856 64.364 34.8892 64.364 35.1612C64.364 35.315 64.3272 35.4649 64.2526 35.6102C64.1793 35.7551 64.0547 35.8646 63.8799 35.9396V35.9665C64.0955 36.0148 64.2474 36.1037 64.3372 36.2333C64.4261 36.3629 64.4719 36.5401 64.4719 36.7645C64.4719 37.1073 64.3681 37.3566 64.1623 37.5097C63.9562 37.664 63.6498 37.7413 63.2418 37.7413C63.0893 37.7413 62.9435 37.7358 62.8056 37.7244C62.6661 37.7136 62.534 37.7017 62.4092 37.6887V34.4033ZM63.3899 35.8018C63.4527 35.8018 63.5132 35.7873 63.5716 35.7588C63.6292 35.7307 63.6823 35.6917 63.7289 35.643C63.7761 35.5943 63.8129 35.5392 63.8396 35.4752C63.8665 35.4112 63.8799 35.344 63.8799 35.2741C63.8799 35.1025 63.8387 34.9771 63.7557 34.8978C63.673 34.8185 63.5308 34.7793 63.3291 34.7793C63.221 34.7793 63.137 34.7822 63.0741 34.7863C63.0113 34.7904 62.9509 34.7951 62.8922 34.7986V35.802L63.3899 35.8018ZM62.8922 37.2855C62.9598 37.2951 63.0241 37.3012 63.0839 37.3061C63.1453 37.31 63.22 37.3118 63.309 37.3118C63.538 37.3118 63.7045 37.2667 63.8095 37.1736C63.914 37.0807 63.968 36.9316 63.968 36.7252C63.968 36.5672 63.9228 36.4357 63.8338 36.3328C63.7429 36.229 63.5798 36.1774 63.3421 36.1774H62.8922V37.2855Z" fill="#E84B37"/>
<path d="M67.2587 37.4706C67.1528 37.5671 67.0157 37.6423 66.8498 37.6949C66.6843 37.7479 66.5096 37.775 66.3253 37.775C66.1156 37.775 65.9327 37.733 65.7783 37.6527C65.6241 37.5707 65.4958 37.4546 65.3956 37.3025C65.2942 37.1509 65.2207 36.9699 65.1743 36.7585C65.1269 36.5471 65.1031 36.31 65.1031 36.0453C65.1031 35.4829 65.2079 35.0542 65.419 34.7595C65.6294 34.4649 65.9271 34.3167 66.3128 34.3167C66.4376 34.3167 66.5623 34.3333 66.6857 34.3632C66.808 34.3942 66.9193 34.4564 67.0177 34.5475C67.1168 34.6404 67.1956 34.7696 67.2566 34.9372C67.3167 35.1036 67.3471 35.3221 67.3471 35.5907C67.3471 35.6655 67.3435 35.745 67.3371 35.8312C67.3301 35.9163 67.3219 36.0055 67.3138 36.0979H65.607C65.607 36.287 65.6229 36.4596 65.6543 36.6122C65.6858 36.7666 65.7346 36.8977 65.8022 37.0055C65.8685 37.1133 65.9547 37.1965 66.0612 37.2557C66.1658 37.3142 66.2971 37.3447 66.453 37.3447C66.5741 37.3447 66.6943 37.3233 66.8128 37.2791C66.9315 37.2354 67.0217 37.1822 67.0841 37.1207L67.2587 37.4706ZM66.8835 35.7026C66.8918 35.3728 66.8454 35.1302 66.7427 34.9776C66.6389 34.8227 66.4976 34.7467 66.3191 34.7467C66.1124 34.7467 65.9497 34.8227 65.8291 34.9776C65.7078 35.1302 65.6368 35.373 65.6134 35.7026H66.8835Z" fill="#E84B37"/>
<path d="M69.8052 36.2241H68.6438V37.6947H68.1594V34.3965H68.6438V35.7952H69.8052V34.3965H70.2889V37.6947H69.8052V36.2241Z" fill="#E84B37"/>
<path d="M72.8558 36.2241H71.6931V37.6947H71.2087V34.3965H71.6931V35.7952H72.8558V34.3965H73.3389V37.6947H72.8558V36.2241Z" fill="#E84B37"/>
<path d="M74.7425 35.6562C74.832 35.6387 74.9174 35.6272 74.9975 35.6197C75.0789 35.6134 75.1549 35.6099 75.2262 35.6099C75.4099 35.6099 75.5647 35.6352 75.6898 35.6861C75.8156 35.7365 75.9159 35.8062 75.9892 35.8937C76.0626 35.9819 76.1151 36.0861 76.1467 36.2069C76.1783 36.3286 76.1931 36.4574 76.1931 36.5934C76.1931 36.9938 76.1036 37.2842 75.922 37.464C75.741 37.644 75.4395 37.7344 75.0177 37.7344C74.7586 37.7344 74.505 37.7214 74.2587 37.6949V34.3967H74.7425V35.6562ZM74.7425 37.2667C74.8764 37.2924 75.0002 37.3056 75.1125 37.3056C75.3278 37.3056 75.4765 37.2491 75.5633 37.1374C75.6468 37.0253 75.6905 36.8635 75.6905 36.6526C75.6905 36.4544 75.6481 36.2991 75.566 36.188C75.4833 36.0749 75.3366 36.0194 75.126 36.0194C75.0675 36.0194 75.0049 36.0229 74.9376 36.03C74.871 36.0351 74.8057 36.0486 74.7425 36.0657V37.2667ZM76.5968 34.3965H77.0806V37.6947H76.5968V34.3965Z" fill="#E84B37"/>
<path d="M80.0155 37.4706C79.9099 37.5671 79.7726 37.6423 79.6064 37.6949C79.4409 37.7479 79.2659 37.775 79.0816 37.775C78.8717 37.775 78.6893 37.733 78.5352 37.6527C78.3812 37.5707 78.2527 37.4546 78.1524 37.3025C78.0521 37.1509 77.9775 36.9699 77.9297 36.7585C77.8833 36.5471 77.8597 36.31 77.8597 36.0453C77.8597 35.4829 77.9647 35.0542 78.1759 34.7595C78.3865 34.4649 78.6839 34.3167 79.0695 34.3167C79.1953 34.3167 79.3184 34.3333 79.4409 34.3632C79.566 34.3942 79.6764 34.4564 79.7746 34.5475C79.8728 34.6404 79.9522 34.7696 80.0135 34.9372C80.074 35.1036 80.1036 35.3221 80.1036 35.5907C80.1036 35.6655 80.1003 35.745 80.0935 35.8312C80.0868 35.9163 80.0787 36.0055 80.07 36.0979H78.363C78.363 36.287 78.3791 36.4596 78.4101 36.6122C78.4424 36.7666 78.4915 36.8977 78.5588 37.0055C78.6254 37.1133 78.7115 37.1965 78.8172 37.2557C78.9221 37.3142 79.0533 37.3447 79.2094 37.3447C79.3305 37.3447 79.451 37.3233 79.5694 37.2791C79.6878 37.2354 79.7786 37.1822 79.8419 37.1207L80.0155 37.4706ZM79.64 35.7026C79.6495 35.3728 79.6017 35.1302 79.4994 34.9776C79.3958 34.8227 79.2552 34.7467 79.0755 34.7467C78.8703 34.7467 78.7068 34.8227 78.5857 34.9776C78.4646 35.1302 78.3939 35.373 78.3704 35.7026H79.64Z" fill="#E84B37"/>
</g>
</g>
<defs>
<clipPath id="clip0_93_967">
<rect width="109" height="45" fill="white" transform="translate(0.5 0.282959)"/>
</clipPath>
</defs>
</svg>
